<svg xmlns="http://www.w3.org/2000/svg" viewBox="0 0 539.63 894.95"><defs><style>.cls-1{fill:#0d94d2;stroke:#fff;stroke-miterlimit:10;}</style></defs><g id="Layer_2" data-name="Layer 2"><g id="Layer_1-2" data-name="Layer 1"><path class="cls-1" d="M46.3,677s35.78-83.29,138.81-177.6c0,0-145.32,98.67-163.77,107.51,0,0-71.6-214.88,50.65-409.41l122.86,60.21-92-101.5S258.58-73.69,530.6,25.22c0,0-53.71-13.59-96.72,4.64-19.5,8.26-39.19,20.79-52.28,34.85-15.37,16.51-22.57,34.2-23.47,35.74-7.83,13.52-13,29.46-14.4,48.27-2.05,28,2.53,61.9,22.84,103.57,0,0,36.39,67.67,57.41,95.35s76.38,121,75.86,136.86l-130,90.24,153.1-21.55s83.55,240.15-128.66,324.73S52,695.93,46.3,677Z"/></g></g></svg>