<svg height="450.83" viewBox="0 0 337.51 338.12" width="450.01" xmlns="http://www.w3.org/2000/svg" xmlns:xlink="http://www.w3.org/1999/xlink"><linearGradient id="a" gradientUnits="userSpaceOnUse" x1="293.08" x2="-170.28" y1="40.651" y2="504.01"><stop offset="0" stop-color="#23bac2"/><stop offset="1" stop-color="#4a88f1"/></linearGradient><g stroke-width="1.1771"><path d="m337.5 169.06c0-93.371-75.553-169.06-168.75-169.06-93.201 0-168.75 75.691-168.75 169.06 0 93.367 75.549 169.06 168.75 169.06 93.197 0 168.75-75.691 168.75-169.06z" fill="url(#a)"/><path d="m168.75 0c-93.202 0-168.75 75.69-168.75 169.06 0 1.2541.021218 2.5024.048338 3.75 1.9913-91.642 76.755-165.32 168.71-165.32 91.942-.0000007 166.71 73.675 168.7 165.32.0272-1.2476.0483-2.4959.0483-3.75-.00001-93.375-75.555-169.06-168.75-169.06z" fill="#fff" opacity=".2"/><path d="m.04834 165.31c-.027105 1.2472-.048338 2.4963-.048338 3.75 0 93.368 75.548 169.06 168.75 169.06 93.195 0 168.75-75.69 168.75-169.06 0-1.2537-.0212-2.5028-.0484-3.75-1.9921 91.635-76.755 165.31-168.7 165.31-91.95 0-166.71-73.674-168.71-165.31z" fill="#050002" fill-opacity=".99608" opacity=".3"/></g><g stroke-width=".84881" transform="translate(-23.25 -22.94)"><path d="m220.03 78.277-40.743 6.167v147.37l40.743-10.941v-56.936l40.743 67.123 40.743-15.278-50.928-61.114 50.948-66.185-39.529-10.206-41.976 66.806zm-82.955 39.967c-.96486 0-1.9264.37466-2.6658 1.114l-16.015 16.015c-1.4788 1.4788-1.1207 3.5875 0 5.3514l16.571 26.021c-1.2268 2.5497-2.2911 5.1724-3.183 7.8582-.0398.11605-.0994.22214-.13924.33819l-30.06 6.6844c-2.0391.45424-3.7798 1.691-3.7798 3.7798v20.013c0 2.0888 1.7407 3.3256 3.7798 3.7798l30.06 6.6844c.0662.19893.1724.3813.23872.57691.86872 2.6094 1.8966 5.1592 3.0836 7.6395l-16.571 26.001c-1.1207 1.7639-1.4788 3.8727 0 5.3514l16.015 16.015c1.4788 1.4788 3.8528 1.4788 5.3316 0l25.982-16.552c2.553 1.2433 5.1856 2.3176 7.8778 3.2228.17574.063.34152.15916.51725.21883l6.6641 30.04c0 2.0888 1.691 3.7798 3.7798 3.7798h22.619c2.0888 0 3.3256-1.7407 3.7798-3.7798l6.6641-30.955c3.0604-1.1506 6.0345-2.5265 8.8925-4.118l25.365 18.143c1.4788 1.4788 3.8528 1.4788 5.3316 0l16.015-16.015c1.4788-1.4788 1.1207-3.5875 0-5.3515l-9.6486-14.642-1.0146.37797c-2.2944.86206-4.8773-.0333-6.1472-2.1286l-10.146-16.711c-8.4552 20.222-28.418 34.436-51.704 34.436-30.938 0-56.021-25.083-56.021-56.021 0-23.743 14.798-43.985 35.65-52.142v-11.161l-.0795.3581c-.22546.0761-.43104.19892-.65647.27851-2.6558.88195-5.2553 1.933-7.7783 3.1432l-25.942-16.532c-.73936-.73941-1.7009-1.114-2.6658-1.114z" opacity=".3"/><path d="m220.03 72.125-40.743 6.1671v147.37l40.743-10.941v-56.936l40.743 67.123 40.743-15.278-50.928-61.114 50.948-66.185-39.529-10.206-41.976 66.806zm-82.955 39.967c-.96486 0-1.9264.37466-2.6658 1.1141l-16.015 16.015c-1.4788 1.4788-1.1207 3.5875 0 5.3514l16.571 26.021c-1.2268 2.5497-2.2911 5.1724-3.183 7.8581-.0398.11605-.0994.22216-.13924.33819l-30.06 6.6844c-2.0391.45424-3.7798 1.691-3.7798 3.7798v20.013c0 2.0888 1.7407 3.3256 3.7798 3.7798l30.06 6.6844c.0662.19895.1724.38131.23872.57691.86872 2.6094 1.8966 5.1592 3.0836 7.6395l-16.571 26.001c-1.1207 1.7639-1.4788 3.8727 0 5.3514l16.015 16.015c1.4788 1.4788 3.8528 1.4788 5.3316 0l25.982-16.552c2.553 1.2433 5.1856 2.3176 7.8778 3.2228.17574.063.34152.15916.51725.21883l6.6641 30.04c0 2.0888 1.691 3.7798 3.7798 3.7798h22.619c2.0888 0 3.3256-1.7407 3.7798-3.7798l6.6641-30.955c3.0604-1.1506 6.0345-2.5265 8.8925-4.118l25.365 18.143c1.4788 1.4788 3.8528 1.4788 5.3316 0l16.015-16.015c1.4788-1.4788 1.1207-3.5875 0-5.3514l-9.6486-14.642-1.0146.37798c-2.2944.86205-4.8773-.0332-6.1472-2.1286l-10.146-16.711c-8.4552 20.222-28.418 34.436-51.704 34.436-30.938 0-56.021-25.083-56.021-56.021 0-23.743 14.798-43.985 35.65-52.142v-11.161l-.0795.35809c-.22546.0761-.43104.19892-.65647.27852-2.6558.88194-5.2553 1.933-7.7783 3.1432l-25.942-16.532c-.73936-.73941-1.7009-1.114-2.6658-1.114z" fill="#fff"/></g></svg>