<svg height="450.83" viewBox="0 0 337.51 338.12" width="450.01" xmlns="http://www.w3.org/2000/svg"><g stroke-width="1.1771"><g transform="translate(-23.25 -22.94)"><path d="m360.75 192c0-93.371-75.553-169.06-168.75-169.06-93.201 0-168.75 75.691-168.75 169.06 0 93.367 75.549 169.06 168.75 169.06 93.197 0 168.75-75.691 168.75-169.06z" fill="#272a34" fill-opacity=".99608"/><path d="m265.26 85.398c-47.477 0-56.379 67.616-29.672 67.616 26.702 0 77.149-67.616 29.672-67.616zm-73.353 8.2802c-.75396-.0024-1.5477.0485-2.383.15691-26.716 3.4671-17.317 49.933-3.0952 50.802 13.778.8419 28.851-50.878 5.4782-50.959zm-46.291 18.387c-1.4123.0314-2.9543.36821-4.6316 1.0605-21.474 8.8608-3.2601 45.439 8.7734 42.979 11.098-2.2636 12.523-44.41-4.1418-44.039zm-34.214 28.67c-1.867-.0631-3.8855.5558-6.0352 2.0399-17.193 11.877 5.7805 40.57 15.897 36.123 8.8475-3.8987 3.2075-37.722-9.8615-38.163zm95.38 21.944c-36.473.32418-82.888 18.805-90.972 55.004-8.9757 40.179 36.961 95.919 84.897 95.919 23.58 0 50.778-21.294 55.868-48.268 3.8855-20.568-45.734-12.323-43.95 1.2829 2.1336 16.314-11.969 24.371-25.782 13.855-43.973-33.48 72.808-50.181 65.111-95.919-2.4967-14.829-21.792-22.083-45.172-21.875z" fill-opacity=".99608"/><path d="m265.26 77.898c-47.477 0-56.379 67.616-29.672 67.616 26.702 0 77.149-67.616 29.672-67.616zm-73.353 8.2802c-.75395-.0026-1.5477.04856-2.383.15691-26.716 3.4671-17.317 49.933-3.0952 50.802 13.778.8419 28.851-50.878 5.4782-50.959zm-46.291 18.387c-1.4123.0314-2.9543.36821-4.6316 1.0605-21.474 8.8608-3.2601 45.439 8.7734 42.979 11.098-2.2636 12.523-44.41-4.1418-44.039zm-34.214 28.67c-1.867-.063-3.8855.55581-6.0352 2.0399-17.193 11.877 5.7805 40.57 15.897 36.123 8.8476-3.8987 3.2075-37.722-9.8614-38.163zm95.38 21.944c-36.473.32419-82.888 18.805-90.972 55.004-8.9757 40.179 36.961 95.919 84.897 95.919 23.58 0 50.778-21.294 55.868-48.268 3.8855-20.568-45.734-12.323-43.95 1.2829 2.1336 16.314-11.969 24.371-25.782 13.855-43.973-33.48 72.808-50.181 65.111-95.919-2.4967-14.829-21.792-22.083-45.172-21.875z" fill="#fff"/></g><path d="m168.75 0c-93.202 0-168.75 75.69-168.75 169.06 0 1.2541.021218 2.5024.048338 3.75 1.9913-91.642 76.755-165.32 168.71-165.32 91.942-.0000007 166.71 73.675 168.7 165.32.0272-1.2476.0483-2.4959.0483-3.75-.00001-93.375-75.555-169.06-168.75-169.06z" fill="#fff" opacity=".2"/><path d="m.04834 165.31c-.027105 1.2472-.048338 2.4963-.048338 3.75 0 93.368 75.548 169.06 168.75 169.06 93.195 0 168.75-75.69 168.75-169.06 0-1.2537-.0212-2.5028-.0484-3.75-1.9921 91.635-76.755 165.31-168.7 165.31-91.95 0-166.71-73.674-168.71-165.31z" fill="#050002" fill-opacity=".99608" opacity=".3"/></g></svg>